<mxfile host="app.diagrams.net" agent="Mozilla/5.0 (Windows NT 10.0; Win64; x64) AppleWebKit/537.36 (KHTML, like Gecko) Chrome/130.0.0.0 Safari/537.36" version="24.8.3">
  <diagram name="Страница — 1" id="hLM7gaqLmmweW9MpoPu9">
    <mxGraphModel dx="675" dy="368" grid="1" gridSize="10" guides="1" tooltips="1" connect="1" arrows="1" fold="1" page="1" pageScale="1" pageWidth="827" pageHeight="1169" math="0" shadow="0">
      <root>
        <mxCell id="0" />
        <mxCell id="1" parent="0" />
        <mxCell id="x6LVMZpgkKqkRjje3ElV-1" value="" style="rounded=0;whiteSpace=wrap;html=1;" vertex="1" parent="1">
          <mxGeometry x="80" y="50" width="140" height="20" as="geometry" />
        </mxCell>
        <mxCell id="x6LVMZpgkKqkRjje3ElV-2" value="&lt;b&gt;Client&lt;/b&gt;" style="text;html=1;align=center;verticalAlign=middle;whiteSpace=wrap;rounded=0;" vertex="1" parent="1">
          <mxGeometry x="80" y="50" width="140" height="20" as="geometry" />
        </mxCell>
        <mxCell id="x6LVMZpgkKqkRjje3ElV-3" value="" style="rounded=0;whiteSpace=wrap;html=1;" vertex="1" parent="1">
          <mxGeometry x="80" y="70" width="140" height="140" as="geometry" />
        </mxCell>
        <mxCell id="x6LVMZpgkKqkRjje3ElV-4" value="" style="endArrow=none;html=1;rounded=0;entryX=0.927;entryY=1.001;entryDx=0;entryDy=0;entryPerimeter=0;" edge="1" parent="1" target="x6LVMZpgkKqkRjje3ElV-3">
          <mxGeometry width="50" height="50" relative="1" as="geometry">
            <mxPoint x="210" y="70" as="sourcePoint" />
            <mxPoint x="210" y="130" as="targetPoint" />
          </mxGeometry>
        </mxCell>
        <mxCell id="x6LVMZpgkKqkRjje3ElV-5" value="" style="endArrow=none;html=1;rounded=0;entryX=0.211;entryY=0.998;entryDx=0;entryDy=0;entryPerimeter=0;" edge="1" parent="1" target="x6LVMZpgkKqkRjje3ElV-3">
          <mxGeometry width="50" height="50" relative="1" as="geometry">
            <mxPoint x="109" y="70" as="sourcePoint" />
            <mxPoint x="109" y="190" as="targetPoint" />
          </mxGeometry>
        </mxCell>
        <mxCell id="x6LVMZpgkKqkRjje3ElV-6" value="id" style="text;html=1;align=center;verticalAlign=middle;whiteSpace=wrap;rounded=0;" vertex="1" parent="1">
          <mxGeometry x="107" y="80" width="30" height="10" as="geometry" />
        </mxCell>
        <mxCell id="x6LVMZpgkKqkRjje3ElV-7" value="name" style="text;html=1;align=center;verticalAlign=middle;whiteSpace=wrap;rounded=0;" vertex="1" parent="1">
          <mxGeometry x="107" y="95" width="50" height="10" as="geometry" />
        </mxCell>
        <mxCell id="x6LVMZpgkKqkRjje3ElV-8" value="surname" style="text;html=1;align=center;verticalAlign=middle;whiteSpace=wrap;rounded=0;" vertex="1" parent="1">
          <mxGeometry x="105.5" y="110" width="69" height="10" as="geometry" />
        </mxCell>
        <mxCell id="x6LVMZpgkKqkRjje3ElV-9" value="PK" style="text;html=1;align=center;verticalAlign=middle;whiteSpace=wrap;rounded=0;" vertex="1" parent="1">
          <mxGeometry x="80" y="80" width="30" height="10" as="geometry" />
        </mxCell>
        <mxCell id="x6LVMZpgkKqkRjje3ElV-10" value="" style="endArrow=none;html=1;rounded=0;" edge="1" parent="1">
          <mxGeometry width="50" height="50" relative="1" as="geometry">
            <mxPoint x="220" y="90" as="sourcePoint" />
            <mxPoint x="310" y="90" as="targetPoint" />
          </mxGeometry>
        </mxCell>
        <mxCell id="x6LVMZpgkKqkRjje3ElV-11" value="" style="endArrow=none;html=1;rounded=0;exitX=1;exitY=0.5;exitDx=0;exitDy=0;entryX=0;entryY=0.5;entryDx=0;entryDy=0;" edge="1" parent="1" source="x6LVMZpgkKqkRjje3ElV-12" target="x6LVMZpgkKqkRjje3ElV-25">
          <mxGeometry width="50" height="50" relative="1" as="geometry">
            <mxPoint x="340" y="90" as="sourcePoint" />
            <mxPoint x="330" y="80" as="targetPoint" />
          </mxGeometry>
        </mxCell>
        <mxCell id="x6LVMZpgkKqkRjje3ElV-12" value="" style="ellipse;whiteSpace=wrap;html=1;aspect=fixed;" vertex="1" parent="1">
          <mxGeometry x="310" y="85" width="10" height="10" as="geometry" />
        </mxCell>
        <mxCell id="x6LVMZpgkKqkRjje3ElV-13" value="" style="endArrow=none;html=1;rounded=0;exitX=1;exitY=0.5;exitDx=0;exitDy=0;" edge="1" parent="1" source="x6LVMZpgkKqkRjje3ElV-12">
          <mxGeometry width="50" height="50" relative="1" as="geometry">
            <mxPoint x="400" y="90" as="sourcePoint" />
            <mxPoint x="330" y="90" as="targetPoint" />
          </mxGeometry>
        </mxCell>
        <mxCell id="x6LVMZpgkKqkRjje3ElV-14" value="" style="endArrow=none;html=1;rounded=0;exitX=1;exitY=0.5;exitDx=0;exitDy=0;entryX=0;entryY=0;entryDx=0;entryDy=0;" edge="1" parent="1" source="x6LVMZpgkKqkRjje3ElV-12" target="x6LVMZpgkKqkRjje3ElV-26">
          <mxGeometry width="50" height="50" relative="1" as="geometry">
            <mxPoint x="390" y="100" as="sourcePoint" />
            <mxPoint x="330" y="100" as="targetPoint" />
          </mxGeometry>
        </mxCell>
        <mxCell id="x6LVMZpgkKqkRjje3ElV-15" value="" style="endArrow=none;html=1;rounded=0;" edge="1" parent="1">
          <mxGeometry width="50" height="50" relative="1" as="geometry">
            <mxPoint x="230" y="95" as="sourcePoint" />
            <mxPoint x="230" y="85" as="targetPoint" />
          </mxGeometry>
        </mxCell>
        <mxCell id="x6LVMZpgkKqkRjje3ElV-16" value="" style="endArrow=none;html=1;rounded=0;" edge="1" parent="1">
          <mxGeometry width="50" height="50" relative="1" as="geometry">
            <mxPoint x="234" y="95" as="sourcePoint" />
            <mxPoint x="234" y="85" as="targetPoint" />
          </mxGeometry>
        </mxCell>
        <mxCell id="x6LVMZpgkKqkRjje3ElV-17" value="" style="rounded=0;whiteSpace=wrap;html=1;" vertex="1" parent="1">
          <mxGeometry x="330" y="50" width="140" height="20" as="geometry" />
        </mxCell>
        <mxCell id="x6LVMZpgkKqkRjje3ElV-18" value="&lt;b&gt;Service&lt;/b&gt;" style="text;html=1;align=center;verticalAlign=middle;whiteSpace=wrap;rounded=0;" vertex="1" parent="1">
          <mxGeometry x="330" y="50" width="140" height="20" as="geometry" />
        </mxCell>
        <mxCell id="x6LVMZpgkKqkRjje3ElV-19" value="" style="rounded=0;whiteSpace=wrap;html=1;" vertex="1" parent="1">
          <mxGeometry x="330" y="70" width="140" height="100" as="geometry" />
        </mxCell>
        <mxCell id="x6LVMZpgkKqkRjje3ElV-20" value="" style="endArrow=none;html=1;rounded=0;" edge="1" parent="1">
          <mxGeometry width="50" height="50" relative="1" as="geometry">
            <mxPoint x="460" y="70" as="sourcePoint" />
            <mxPoint x="460" y="170" as="targetPoint" />
          </mxGeometry>
        </mxCell>
        <mxCell id="x6LVMZpgkKqkRjje3ElV-21" value="" style="endArrow=none;html=1;rounded=0;" edge="1" parent="1">
          <mxGeometry width="50" height="50" relative="1" as="geometry">
            <mxPoint x="360" y="70" as="sourcePoint" />
            <mxPoint x="360" y="170" as="targetPoint" />
          </mxGeometry>
        </mxCell>
        <mxCell id="x6LVMZpgkKqkRjje3ElV-23" value="client_id" style="text;html=1;align=center;verticalAlign=middle;whiteSpace=wrap;rounded=0;" vertex="1" parent="1">
          <mxGeometry x="359" y="82" width="60" height="10" as="geometry" />
        </mxCell>
        <mxCell id="x6LVMZpgkKqkRjje3ElV-24" value="haircut_id" style="text;html=1;align=center;verticalAlign=middle;whiteSpace=wrap;rounded=0;" vertex="1" parent="1">
          <mxGeometry x="359" y="97" width="69" height="10" as="geometry" />
        </mxCell>
        <mxCell id="x6LVMZpgkKqkRjje3ElV-25" value="PK" style="text;html=1;align=center;verticalAlign=middle;whiteSpace=wrap;rounded=0;" vertex="1" parent="1">
          <mxGeometry x="330" y="80" width="30" height="10" as="geometry" />
        </mxCell>
        <mxCell id="x6LVMZpgkKqkRjje3ElV-26" value="FK" style="text;html=1;align=center;verticalAlign=middle;whiteSpace=wrap;rounded=0;" vertex="1" parent="1">
          <mxGeometry x="330" y="95" width="29" height="10" as="geometry" />
        </mxCell>
        <mxCell id="x6LVMZpgkKqkRjje3ElV-27" value="FK" style="text;html=1;align=center;verticalAlign=middle;whiteSpace=wrap;rounded=0;" vertex="1" parent="1">
          <mxGeometry x="329" y="110" width="30" height="10" as="geometry" />
        </mxCell>
        <mxCell id="x6LVMZpgkKqkRjje3ElV-28" value="data" style="text;html=1;align=center;verticalAlign=middle;whiteSpace=wrap;rounded=0;" vertex="1" parent="1">
          <mxGeometry x="360" y="112" width="39" height="10" as="geometry" />
        </mxCell>
        <mxCell id="x6LVMZpgkKqkRjje3ElV-29" value="price" style="text;html=1;align=center;verticalAlign=middle;whiteSpace=wrap;rounded=0;" vertex="1" parent="1">
          <mxGeometry x="361" y="128" width="39" height="10" as="geometry" />
        </mxCell>
        <mxCell id="x6LVMZpgkKqkRjje3ElV-30" value="" style="endArrow=none;html=1;rounded=0;exitX=1;exitY=0.5;exitDx=0;exitDy=0;" edge="1" parent="1" source="x6LVMZpgkKqkRjje3ElV-31">
          <mxGeometry width="50" height="50" relative="1" as="geometry">
            <mxPoint x="550" y="90" as="sourcePoint" />
            <mxPoint x="470" y="85" as="targetPoint" />
          </mxGeometry>
        </mxCell>
        <mxCell id="x6LVMZpgkKqkRjje3ElV-31" value="" style="ellipse;whiteSpace=wrap;html=1;aspect=fixed;rotation=-180;" vertex="1" parent="1">
          <mxGeometry x="480" y="85" width="10" height="10" as="geometry" />
        </mxCell>
        <mxCell id="x6LVMZpgkKqkRjje3ElV-32" value="" style="endArrow=none;html=1;rounded=0;exitX=1;exitY=0.5;exitDx=0;exitDy=0;" edge="1" parent="1" source="x6LVMZpgkKqkRjje3ElV-31">
          <mxGeometry width="50" height="50" relative="1" as="geometry">
            <mxPoint x="610" y="90" as="sourcePoint" />
            <mxPoint x="470" y="90" as="targetPoint" />
          </mxGeometry>
        </mxCell>
        <mxCell id="x6LVMZpgkKqkRjje3ElV-33" value="" style="endArrow=none;html=1;rounded=0;exitX=1;exitY=0.5;exitDx=0;exitDy=0;entryX=1;entryY=0.25;entryDx=0;entryDy=0;" edge="1" parent="1" source="x6LVMZpgkKqkRjje3ElV-31" target="x6LVMZpgkKqkRjje3ElV-19">
          <mxGeometry width="50" height="50" relative="1" as="geometry">
            <mxPoint x="600" y="100" as="sourcePoint" />
            <mxPoint x="490" y="100" as="targetPoint" />
          </mxGeometry>
        </mxCell>
        <mxCell id="x6LVMZpgkKqkRjje3ElV-34" value="" style="rounded=0;whiteSpace=wrap;html=1;" vertex="1" parent="1">
          <mxGeometry x="580" y="50" width="140" height="20" as="geometry" />
        </mxCell>
        <mxCell id="x6LVMZpgkKqkRjje3ElV-35" value="&lt;b&gt;Haircut&lt;/b&gt;" style="text;html=1;align=center;verticalAlign=middle;whiteSpace=wrap;rounded=0;" vertex="1" parent="1">
          <mxGeometry x="580" y="50" width="140" height="20" as="geometry" />
        </mxCell>
        <mxCell id="x6LVMZpgkKqkRjje3ElV-36" value="" style="rounded=0;whiteSpace=wrap;html=1;" vertex="1" parent="1">
          <mxGeometry x="580" y="70" width="140" height="90" as="geometry" />
        </mxCell>
        <mxCell id="x6LVMZpgkKqkRjje3ElV-37" value="" style="endArrow=none;html=1;rounded=0;" edge="1" parent="1">
          <mxGeometry width="50" height="50" relative="1" as="geometry">
            <mxPoint x="710" y="70" as="sourcePoint" />
            <mxPoint x="710" y="160" as="targetPoint" />
          </mxGeometry>
        </mxCell>
        <mxCell id="x6LVMZpgkKqkRjje3ElV-38" value="" style="endArrow=none;html=1;rounded=0;" edge="1" parent="1">
          <mxGeometry width="50" height="50" relative="1" as="geometry">
            <mxPoint x="610" y="70" as="sourcePoint" />
            <mxPoint x="610" y="160" as="targetPoint" />
          </mxGeometry>
        </mxCell>
        <mxCell id="x6LVMZpgkKqkRjje3ElV-39" value="id" style="text;html=1;align=center;verticalAlign=middle;whiteSpace=wrap;rounded=0;" vertex="1" parent="1">
          <mxGeometry x="610" y="80" width="30" height="10" as="geometry" />
        </mxCell>
        <mxCell id="x6LVMZpgkKqkRjje3ElV-40" value="title" style="text;html=1;align=center;verticalAlign=middle;whiteSpace=wrap;rounded=0;" vertex="1" parent="1">
          <mxGeometry x="609" y="95" width="41" height="10" as="geometry" />
        </mxCell>
        <mxCell id="x6LVMZpgkKqkRjje3ElV-41" value="gender" style="text;html=1;align=center;verticalAlign=middle;whiteSpace=wrap;rounded=0;" vertex="1" parent="1">
          <mxGeometry x="609" y="110" width="61" height="10" as="geometry" />
        </mxCell>
        <mxCell id="x6LVMZpgkKqkRjje3ElV-42" value="PK" style="text;html=1;align=center;verticalAlign=middle;whiteSpace=wrap;rounded=0;" vertex="1" parent="1">
          <mxGeometry x="580" y="80" width="30" height="10" as="geometry" />
        </mxCell>
        <mxCell id="x6LVMZpgkKqkRjje3ElV-43" value="base_price" style="text;html=1;align=center;verticalAlign=middle;whiteSpace=wrap;rounded=0;" vertex="1" parent="1">
          <mxGeometry x="609" y="125" width="83" height="10" as="geometry" />
        </mxCell>
        <mxCell id="x6LVMZpgkKqkRjje3ElV-44" value="" style="endArrow=none;html=1;rounded=0;" edge="1" parent="1">
          <mxGeometry width="50" height="50" relative="1" as="geometry">
            <mxPoint x="490" y="90" as="sourcePoint" />
            <mxPoint x="580" y="90" as="targetPoint" />
          </mxGeometry>
        </mxCell>
        <mxCell id="x6LVMZpgkKqkRjje3ElV-45" value="" style="endArrow=none;html=1;rounded=0;" edge="1" parent="1">
          <mxGeometry width="50" height="50" relative="1" as="geometry">
            <mxPoint x="570" y="95" as="sourcePoint" />
            <mxPoint x="570" y="85" as="targetPoint" />
          </mxGeometry>
        </mxCell>
        <mxCell id="x6LVMZpgkKqkRjje3ElV-46" value="" style="endArrow=none;html=1;rounded=0;" edge="1" parent="1">
          <mxGeometry width="50" height="50" relative="1" as="geometry">
            <mxPoint x="574" y="95" as="sourcePoint" />
            <mxPoint x="574" y="85" as="targetPoint" />
          </mxGeometry>
        </mxCell>
        <mxCell id="x6LVMZpgkKqkRjje3ElV-47" value="otchestvo" style="text;html=1;align=center;verticalAlign=middle;whiteSpace=wrap;rounded=0;" vertex="1" parent="1">
          <mxGeometry x="102.5" y="125" width="80" height="10" as="geometry" />
        </mxCell>
        <mxCell id="x6LVMZpgkKqkRjje3ElV-49" value="phone" style="text;html=1;align=center;verticalAlign=middle;whiteSpace=wrap;rounded=0;" vertex="1" parent="1">
          <mxGeometry x="110" y="139" width="50" height="10" as="geometry" />
        </mxCell>
        <mxCell id="x6LVMZpgkKqkRjje3ElV-50" value="email" style="text;html=1;align=center;verticalAlign=middle;whiteSpace=wrap;rounded=0;" vertex="1" parent="1">
          <mxGeometry x="112" y="153" width="40" height="10" as="geometry" />
        </mxCell>
        <mxCell id="x6LVMZpgkKqkRjje3ElV-51" value="gender" style="text;html=1;align=center;verticalAlign=middle;whiteSpace=wrap;rounded=0;" vertex="1" parent="1">
          <mxGeometry x="112" y="166" width="48" height="10" as="geometry" />
        </mxCell>
      </root>
    </mxGraphModel>
  </diagram>
</mxfile>
